<svg version="1.2" xmlns="http://www.w3.org/2000/svg" viewBox="0 0 1440 880" width="1440" height="880"><defs><clipPath clipPathUnits="userSpaceOnUse" id="cp1"><path d="m0-5059h1440v6278h-1440z"/></clipPath></defs><style>.a{fill:#c9f9f5}</style><g clip-path="url(#cp1)"><path class="a" d="m1440 879.4h-1440v-876.1c2.2-1.6 4.6-2.3 7.4-2.3 3 0 5.6 0.8 7.9 2.6 2 1.5 3.7 3.6 5.3 5.6 1.6 2.1 3.3 4.2 5.4 5.7 2.3 1.7 4.9 2.6 7.8 2.6 3 0 5.5-0.9 7.9-2.6 2-1.5 3.7-3.6 5.3-5.7 1.6-2 3.3-4.1 5.4-5.6 2.3-1.8 4.9-2.6 7.8-2.6 3 0 5.5 0.8 7.8 2.6 2.1 1.5 3.8 3.6 5.4 5.6 1.6 2.1 3.3 4.2 5.4 5.7 2.3 1.7 4.8 2.6 7.8 2.6 3 0 5.5-0.9 7.8-2.6 2.1-1.5 3.8-3.6 5.4-5.7 1.6-2 3.3-4.1 5.4-5.6 2.3-1.8 4.8-2.6 7.8-2.6 2.9 0 5.5 0.8 7.8 2.6 2.1 1.5 3.8 3.6 5.4 5.6 1.6 2.1 3.3 4.2 5.3 5.7 2.4 1.7 4.9 2.6 7.9 2.6 2.9 0 5.5-0.9 7.8-2.6 2.1-1.5 3.8-3.6 5.4-5.7 1.6-2 3.3-4.1 5.3-5.6 2.3-1.8 4.9-2.6 7.9-2.6 2.9 0 5.5 0.8 7.8 2.6 2.1 1.5 3.7 3.6 5.4 5.6 1.6 2.1 3.3 4.2 5.3 5.7 2.3 1.7 4.9 2.6 7.9 2.6 2.9 0 5.5-0.9 7.8-2.6 2.1-1.5 3.7-3.6 5.4-5.7 1.6-2 3.3-4.1 5.3-5.6 2.3-1.8 4.9-2.6 7.8-2.6 3 0 5.6 0.8 7.9 2.6 2 1.5 3.7 3.6 5.3 5.6 1.7 2.1 3.3 4.2 5.4 5.7 2.3 1.7 4.9 2.6 7.8 2.6 3 0 5.6-0.9 7.9-2.6 2-1.5 3.7-3.6 5.3-5.7 1.7-2 3.3-4.1 5.4-5.6 2.3-1.8 4.9-2.6 7.8-2.6 3 0 5.5 0.8 7.9 2.6 2 1.5 3.7 3.6 5.3 5.6 1.6 2.1 3.3 4.2 5.4 5.7 2.3 1.7 4.9 2.6 7.8 2.6 3 0 5.5-0.9 7.8-2.6 2.1-1.5 3.8-3.6 5.4-5.7 1.6-2 3.3-4.1 5.4-5.6 2.3-1.8 4.8-2.6 7.8-2.6 3 0 5.5 0.8 7.8 2.6 2.1 1.5 3.8 3.6 5.4 5.6 1.6 2.1 3.3 4.2 5.4 5.7 2.3 1.7 4.8 2.6 7.8 2.6 2.9 0 5.5-0.9 7.8-2.6 2.1-1.5 3.8-3.6 5.4-5.7 1.6-2 3.3-4.1 5.3-5.6 2.4-1.8 4.9-2.6 7.9-2.6 2.9 0 5.5 0.8 7.8 2.6 2.1 1.5 3.7 3.6 5.4 5.6 1.6 2.1 3.3 4.2 5.3 5.7 2.3 1.7 4.9 2.6 7.9 2.6 2.9 0 5.5-0.9 7.8-2.6 2.1-1.5 3.7-3.6 5.4-5.7 1.6-2 3.3-4.1 5.3-5.6 2.3-1.8 4.9-2.6 7.9-2.6 2.9 0 5.5 0.8 7.8 2.6 2 1.5 3.7 3.6 5.3 5.6 1.7 2.1 3.3 4.2 5.4 5.7 2.3 1.7 4.9 2.6 7.8 2.6 3 0 5.6-0.9 7.9-2.6 2-1.5 3.7-3.6 5.3-5.7 1.7-2 3.3-4.1 5.4-5.6 2.3-1.8 4.9-2.6 7.8-2.6 3 0 5.5 0.8 7.9 2.6 2 1.5 3.7 3.6 5.3 5.6 1.6 2.1 3.3 4.2 5.4 5.7 2.3 1.7 4.9 2.6 7.8 2.6 3 0 5.5-0.9 7.8-2.6 2.1-1.5 3.8-3.6 5.4-5.7 1.6-2 3.3-4.1 5.4-5.6 2.3-1.8 4.8-2.6 7.8-2.6 3 0 5.5 0.8 7.8 2.6 2.1 1.5 3.8 3.6 5.4 5.6 1.6 2.1 3.3 4.2 5.3 5.7 2.4 1.7 4.9 2.6 7.9 2.6 2.9 0 5.5-0.9 7.8-2.6 2.1-1.5 3.7-3.6 5.4-5.7 1.6-2 3.3-4.1 5.3-5.6 2.3-1.8 4.9-2.6 7.9-2.6 2.9 0 5.5 0.8 7.8 2.6 2.1 1.5 3.7 3.6 5.4 5.6 1.6 2.1 3.3 4.2 5.3 5.7 2.3 1.7 4.9 2.6 7.8 2.6 3 0 5.6-0.9 7.9-2.6 2-1.5 3.7-3.6 5.3-5.7 1.7-2 3.3-4.1 5.4-5.6 2.3-1.8 4.9-2.6 7.8-2.6 3 0 5.6 0.8 7.9 2.6 2 1.5 3.7 3.6 5.3 5.6 1.7 2.1 3.3 4.2 5.4 5.7 2.3 1.7 4.9 2.6 7.8 2.6 3 0 5.5-0.9 7.9-2.6 2-1.5 3.7-3.6 5.3-5.7 1.6-2 3.3-4.1 5.4-5.6 2.3-1.8 4.9-2.6 7.8-2.6 3 0 5.5 0.8 7.8 2.6 2.1 1.5 3.8 3.6 5.4 5.6 1.6 2.1 3.3 4.2 5.4 5.7 2.3 1.7 4.8 2.6 7.8 2.6 3 0 5.5-0.9 7.8-2.6 2.1-1.5 3.8-3.6 5.4-5.7 1.6-2 3.3-4.1 5.4-5.6 2.3-1.8 4.8-2.6 7.8-2.6 2.9 0 5.5 0.8 7.8 2.6 2.1 1.5 3.8 3.6 5.4 5.6 1.6 2.1 3.3 4.2 5.3 5.7 2.4 1.7 4.9 2.6 7.9 2.6 2.9 0 5.5-0.9 7.8-2.6 2.1-1.5 3.7-3.6 5.4-5.7 1.6-2 3.3-4.1 5.3-5.6 2.3-1.8 4.9-2.6 7.9-2.6 2.9 0 5.5 0.8 7.8 2.6 2.1 1.5 3.7 3.6 5.4 5.6 1.6 2.1 3.3 4.2 5.3 5.7 2.3 1.7 4.9 2.6 7.8 2.6 3 0 5.6-0.9 7.9-2.6 2-1.5 3.7-3.6 5.3-5.7 1.7-2 3.3-4.1 5.4-5.6 2.3-1.8 4.9-2.6 7.8-2.6 3 0 5.6 0.8 7.9 2.6 2 1.5 3.7 3.6 5.3 5.6 1.7 2.1 3.3 4.2 5.4 5.7 2.3 1.7 4.9 2.6 7.8 2.6 3 0 5.5-0.9 7.9-2.6 2-1.5 3.7-3.6 5.3-5.7 1.6-2 3.3-4.1 5.4-5.6 2.3-1.8 4.9-2.6 7.8-2.6 3 0 5.5 0.8 7.8 2.6 2.1 1.5 3.8 3.6 5.4 5.6 1.6 2.1 3.3 4.2 5.4 5.7 2.3 1.7 4.8 2.6 7.8 2.6 3 0 5.5-0.9 7.8-2.6 2.1-1.5 3.8-3.6 5.4-5.7 1.6-2 3.3-4.1 5.3-5.6 2.4-1.8 4.9-2.6 7.9-2.6 2.9 0 5.5 0.8 7.8 2.6 2.1 1.5 3.8 3.6 5.4 5.6 1.6 2.1 3.3 4.2 5.3 5.7 2.3 1.7 4.9 2.6 7.9 2.6 2.9 0 5.5-0.9 7.8-2.6 2.1-1.5 3.7-3.6 5.4-5.7 1.6-2 3.3-4.1 5.3-5.6 2.3-1.8 4.9-2.6 7.9-2.6 2.9 0 5.5 0.8 7.8 2.6 2.1 1.5 3.7 3.6 5.3 5.6 1.7 2.1 3.3 4.2 5.4 5.7 2.3 1.7 4.9 2.6 7.8 2.6 3 0 5.6-0.9 7.9-2.6 2-1.5 3.7-3.6 5.3-5.7 1.7-2 3.3-4.1 5.4-5.6 2.3-1.8 4.9-2.6 7.8-2.6 3 0 5.5 0.8 7.9 2.6 2 1.5 3.7 3.6 5.3 5.6 1.6 2.1 3.3 4.2 5.4 5.7 2.3 1.7 4.9 2.6 7.8 2.6 3 0 5.5-0.9 7.8-2.6 2.1-1.5 3.8-3.6 5.4-5.7 1.6-2 3.3-4.1 5.4-5.6 2.3-1.8 4.8-2.6 7.8-2.6 3 0 5.5 0.8 7.8 2.6 2.1 1.5 3.8 3.6 5.4 5.6 1.6 2.1 3.3 4.2 5.4 5.7 2.3 1.7 4.8 2.6 7.8 2.6 2.9 0 5.5-0.9 7.8-2.6 2.1-1.5 3.8-3.6 5.4-5.7 1.6-2 3.3-4.1 5.3-5.6 2.4-1.8 4.9-2.6 7.9-2.6 2.9 0 5.5 0.8 7.8 2.6 2.1 1.5 3.7 3.6 5.4 5.6 1.6 2.1 3.3 4.2 5.3 5.7 2.3 1.7 4.9 2.6 7.9 2.6 2.9 0 5.5-0.9 7.8-2.6 2.1-1.5 3.7-3.6 5.4-5.7 1.6-2 3.2-4.1 5.3-5.6 2.3-1.8 4.9-2.6 7.8-2.6 3 0 5.6 0.8 7.9 2.6 2 1.5 3.7 3.6 5.3 5.6 1.7 2.1 3.3 4.2 5.4 5.7 2.3 1.7 4.9 2.6 7.8 2.6 3 0 5.6-0.9 7.9-2.6 2-1.5 3.7-3.6 5.3-5.7 1.6-2 3.3-4.1 5.4-5.6 2.3-1.8 4.9-2.6 7.8-2.6 3 0 5.5 0.8 7.8 2.6 2.1 1.5 3.8 3.6 5.4 5.6 1.6 2.1 3.3 4.2 5.4 5.7 2.3 1.7 4.8 2.6 7.8 2.6 3 0 5.5-0.9 7.8-2.6 2.1-1.5 3.8-3.6 5.4-5.7 1.6-2 3.3-4.1 5.4-5.6 2.3-1.8 4.8-2.6 7.8-2.6 2.9 0 5.5 0.8 7.8 2.6 2.1 1.5 3.8 3.6 5.4 5.6 1.6 2.1 3.3 4.2 5.3 5.7 2.4 1.7 4.9 2.6 7.9 2.6 2.9 0 5.5-0.9 7.8-2.6 2.1-1.5 3.7-3.6 5.4-5.7 1.6-2 3.3-4.1 5.3-5.6 2.3-1.8 4.9-2.6 7.9-2.6 2.9 0 5.5 0.8 7.8 2.6 2.1 1.5 3.7 3.6 5.4 5.6 1.6 2.1 3.2 4.2 5.3 5.7 2.3 1.7 4.9 2.6 7.8 2.6 3 0 5.6-0.9 7.9-2.6 2-1.5 3.7-3.6 5.3-5.7 1.7-2 3.3-4.1 5.4-5.6 2.3-1.8 4.9-2.6 7.8-2.6 2.9 0 5.4 0.8 7.7 2.4v876z"/></g></svg>